# xmcd
# Track frame offsets:
# 150
# 13710
# 32075
# 46102
# 59556
# 72844
# 88694
# 104677
# 118138
# 131223
# 143611
# 159472
#
# Disc length: 2283 seconds
# Revision: 0
# Processed by: cddbd v1.5.2PL0 Copyright (c) Steve Scherf et al.
# Submitted via: VisiTrax 2.9.10.228 - For more info visit www.synapsa.com
#
DISCID=a908e90c
DTITLE=Various Artist - New Country vol.31 feb-march 2006
DYEAR=2006
DGENRE=country
TTITLE0=Floyd Flowers - Behind the life of the party
TTITLE1=Shavn Michael Perry - Forever
TTITLE2=Heinrich - Gimme five, Johnny Cash
TTITLE3=Mollie Castle - I'm your star
TTITLE4=Miko Marks - Kickin back
TTITLE5=Rachel Raye - Maybe someday
TTITLE6=Cole Porter - Not a day goes by
TTITLE7=Judy Sutton - PHD in love
TTITLE8=Louie Allen - Redneck alley
TTITLE9=Johnny Anthony - Runaway train
TTITLE10=Chris Gray - Something I want
TTITLE11=Ricky Lee Shattuck - You're it
EXTD=
EXTT0=
EXTT1=
EXTT2=
EXTT3=
EXTT4=
EXTT5=
EXTT6=
EXTT7=
EXTT8=
EXTT9=
EXTT10=
EXTT11=
PLAYORDER=
